<svg xmlns="http://www.w3.org/2000/svg" width="27" height="25" viewBox="0 0 27 25" fill="none">
    <path d="M26.3812 0.650558C26.3812 0.650558 -2.74423 -1.11045 0.687294 19.3408C0.687294 19.3408 -0.00451469 22.9561 3.27462 24.5957C3.27462 24.5957 3.32654 23.0809 6.26317 23.5973C7.30872 23.771 8.37089 23.8221 9.42824 23.7497C10.8545 23.6557 12.2117 23.0997 13.2953 22.1656C13.2953 22.1656 21.4829 18.7755 24.6653 5.36797C24.6653 5.36797 27.0208 2.44255 26.9274 1.69013L22.0125 3.79405C22.0125 3.79405 23.6935 7.34706 22.3584 10.2991C22.3584 10.2991 22.1992 3.92106 21.2548 4.05983C21.0647 4.08771 18.7021 5.29022 18.7021 5.29022C18.7021 5.29022 21.5905 11.4775 19.4112 15.9771C19.4112 15.9771 20.2378 8.35132 17.7992 5.73752L14.3401 7.76183C14.3401 7.76183 17.7163 14.1538 15.4264 19.3706C15.4264 19.3706 16.0137 11.3703 13.6103 8.25405L10.4765 10.7046C10.4765 10.7046 13.6483 17.0027 11.7148 21.3295C11.7148 21.3295 11.4622 12.0189 9.79826 11.3155C9.79826 11.3155 7.05513 13.7418 6.63658 14.7331C6.63658 14.7331 8.80877 19.3086 7.45978 21.7211C7.45978 21.7211 6.6332 15.5165 5.95499 15.4818C5.95499 15.4818 3.22238 19.5927 2.93861 22.4143C2.93861 22.4143 3.05639 18.2235 5.2941 15.0937C5.2941 15.0937 2.65143 15.5478 1.10862 17.262C1.10862 17.262 1.53396 14.3573 5.96858 14.1009C5.96858 14.1009 8.22731 10.9812 8.82917 10.7941C8.82917 10.7941 4.42237 10.4224 1.74849 11.6122C1.74849 11.6122 4.10059 8.87048 9.63876 10.1182L12.7346 7.58434C12.7346 7.58434 6.93026 6.79041 4.46751 7.66766C4.46751 7.66766 7.30058 5.24128 13.5683 7.0091L16.9377 4.99161C16.9377 4.99161 11.9878 3.92384 9.04061 4.29835C9.04061 4.29835 12.1538 2.61726 17.9269 4.44053L20.3482 3.35635C20.3482 3.35635 16.7231 2.64235 15.661 2.52804C14.5989 2.41374 14.5438 2.12257 14.5438 2.12257C16.8405 1.73885 19.1983 2.00169 21.3547 2.8818C21.3547 2.8818 26.4678 0.973023 26.3812 0.650558Z" fill="#9775FA"/>
</svg>