<svg xmlns="http://www.w3.org/2000/svg" width="117" height="232" viewBox="0 0 117 232" fill="none">
    <path d="M115.319 52.5231H113.336C112.945 52.5231 112.628 52.8407 112.628 53.2325V79.8797C112.628 80.2714 112.945 80.589 113.336 80.589H115.319C115.71 80.589 116.027 80.2714 116.027 79.8797V53.2325C116.027 52.8407 115.71 52.5231 115.319 52.5231Z" fill="#3F3D56"/>
    <path d="M102.409 0H12.8274C6.171 0 0.774902 5.40739 0.774902 12.0777V219.458C0.774902 226.128 6.171 231.535 12.8274 231.535H102.409C109.066 231.535 114.462 226.128 114.462 219.458V12.0777C114.462 5.40739 109.066 0 102.409 0Z" fill="#3F3D56"/>
    <path d="M98.6385 6.03082H85.5974V7.60288C85.5974 8.58142 85.405 9.55038 85.0312 10.4544C84.6574 11.3584 84.1094 12.1797 83.4188 12.8715C82.7281 13.5632 81.9082 14.1118 81.0059 14.4859C80.1035 14.86 79.1365 15.0523 78.16 15.0518H36.6859C35.7094 15.0523 34.7423 14.86 33.84 14.4859C32.9377 14.1118 32.1178 13.5632 31.4271 12.8715C30.7364 12.1797 30.1885 11.3584 29.8147 10.4544C29.4409 9.55038 29.2485 8.58142 29.2485 7.60288V6.03082H17.0383C14.6437 6.03082 12.3471 6.98408 10.6538 8.6809C8.96055 10.3777 8.00928 12.6791 8.00928 15.0787V216.472C8.00928 218.872 8.96055 221.173 10.6538 222.87C12.3471 224.567 14.6437 225.52 17.0383 225.52H98.6385C101.033 225.52 103.33 224.567 105.023 222.87C106.716 221.173 107.668 218.872 107.668 216.472V15.0942C107.67 13.9047 107.437 12.7265 106.985 11.627C106.532 10.5275 105.867 9.52819 105.028 8.68637C104.19 7.84455 103.194 7.1767 102.097 6.72103C101.001 6.26537 99.8255 6.03082 98.6385 6.03082Z" fill="#FCFCFC"/>
    <path d="M61.3315 6.91458H47.8486C47.1879 6.91458 46.6523 7.4513 46.6523 8.11337V8.94447C46.6523 9.60654 47.1879 10.1433 47.8486 10.1433H61.3315C61.9921 10.1433 62.5277 9.60654 62.5277 8.94447V8.11337C62.5277 7.4513 61.9921 6.91458 61.3315 6.91458Z" fill="#E6E8EC"/>
    <path d="M66.7589 10.3626C67.7694 10.3626 68.5885 9.54169 68.5885 8.52907C68.5885 7.51646 67.7694 6.69557 66.7589 6.69557C65.7484 6.69557 64.9292 7.51646 64.9292 8.52907C64.9292 9.54169 65.7484 10.3626 66.7589 10.3626Z" fill="#E6E8EC"/>
    <path d="M58.3124 140.162C70.19 140.162 79.8187 130.513 79.8187 118.61C79.8187 106.708 70.19 97.059 58.3124 97.059C46.4348 97.059 36.8062 106.708 36.8062 118.61C36.8062 130.513 46.4348 140.162 58.3124 140.162Z" fill="#FCFCFC"/>
    <path d="M86.5993 115.601C86.5991 121.298 84.9131 126.867 81.7545 131.603C78.5959 136.34 74.1066 140.032 68.8543 142.212C63.6019 144.392 57.8225 144.962 52.2467 143.85C46.671 142.739 41.5494 139.995 37.5296 135.967C33.5098 131.938 30.7724 126.806 29.6635 121.218C28.5546 115.631 29.124 109.839 31.2997 104.576C33.4754 99.313 37.1598 94.8146 41.8868 91.6497C46.6138 88.4848 52.1712 86.7957 57.8562 86.7958C61.631 86.796 65.3687 87.5411 68.856 88.9888C72.3433 90.4364 75.512 92.5582 78.181 95.233C80.8501 97.9078 82.9672 101.083 84.4116 104.578C85.856 108.073 86.5994 111.818 86.5993 115.601ZM54.5335 130.848L75.8556 109.481C76.0281 109.308 76.1651 109.104 76.2585 108.878C76.3519 108.652 76.4 108.411 76.4 108.166C76.4 107.922 76.3519 107.68 76.2585 107.455C76.1651 107.229 76.0281 107.024 75.8556 106.852L73.2321 104.242C73.0603 104.069 72.8562 103.932 72.6314 103.839C72.4066 103.745 72.1656 103.697 71.9222 103.697C71.6788 103.697 71.4378 103.745 71.213 103.839C70.9882 103.932 70.7841 104.069 70.6123 104.242L53.2219 121.669L45.102 113.513C44.7535 113.166 44.2818 112.971 43.7903 112.971C43.2987 112.971 42.8271 113.166 42.4785 113.513L39.855 116.158C39.5084 116.507 39.3138 116.979 39.3138 117.472C39.3138 117.965 39.5084 118.437 39.855 118.786L51.9107 130.863C52.0827 131.036 52.2872 131.173 52.5123 131.267C52.7374 131.36 52.9787 131.409 53.2224 131.409C53.4661 131.409 53.7074 131.36 53.9325 131.267C54.1576 131.173 54.3621 131.036 54.5341 130.863L54.5335 130.848Z" fill="#9775FA"/>
</svg>