<svg xmlns="http://www.w3.org/2000/svg" width="48" height="25" viewBox="0 0 48 25" fill="none">
    <path fill-rule="evenodd" clip-rule="evenodd" d="M8.04568 15.304C7.664 15.304 7.36516 15.5702 7.36516 15.9586C7.36516 16.3473 7.66554 16.6119 8.04568 16.6119C8.42558 16.6119 8.7262 16.3455 8.7262 15.9586C8.7262 15.5702 8.42712 15.304 8.04568 15.304ZM8.04568 16.4247C7.77353 16.4247 7.57165 16.2266 7.57165 15.9586C7.57165 15.6908 7.77199 15.4911 8.04568 15.4911C8.31605 15.4911 8.51946 15.6939 8.51946 15.9586C8.51946 16.2217 8.31425 16.4247 8.04568 16.4247ZM14.6675 13.0143H11.3547L11.7312 7.27404L9.57987 13.0143H6.50355L11.3847 0.0396516H14.658L14.2802 5.85867L16.4723 0.0396516H19.5489L14.6675 13.0143ZM15.0671 13.0143L19.948 0.0396516H23.0243L18.1435 13.0143H15.0671Z" fill="#1D1E20"/>
    <path fill-rule="evenodd" clip-rule="evenodd" d="M6.14877 8.54224C1.84991 13.575 -2.20527 20.2714 1.37664 23.3551C4.84749 26.3433 9.18585 24.5741 12.1439 23.3944C15.102 22.2148 47.7976 8.06047 47.7976 8.06047C48.1131 7.90321 48.0541 7.70656 47.6596 7.80476C47.5006 7.84439 12.0652 17.4179 12.0652 17.4179C7.56856 18.6762 2.44142 15.9337 6.14877 8.54224Z" fill="#1D1E20"/>
    <path fill-rule="evenodd" clip-rule="evenodd" d="M8.16158 16.0047C8.257 16.0001 8.33165 15.951 8.33165 15.8193C8.33165 15.6495 8.22032 15.6068 8.03435 15.6068H7.76706V16.3108H7.94534V16.0111H7.97535L8.13772 16.3108H8.34268L8.16158 16.0047ZM8.04717 15.8907H7.9456V15.7273H8.03127C8.08386 15.7273 8.14414 15.7334 8.14414 15.8017C8.14414 15.8748 8.10925 15.8907 8.04717 15.8907ZM38.9702 0C38.5885 0 38.2897 0.266455 38.2897 0.65463C38.2897 1.04306 38.5903 1.30773 38.9702 1.30773C39.3501 1.30773 39.6507 1.04127 39.6507 0.65463C39.651 0.266455 39.3521 0 38.9702 0ZM38.9702 1.12106C38.698 1.12106 38.4961 0.922877 38.4961 0.654887C38.4961 0.387153 38.6965 0.187439 38.9702 0.187439C39.2405 0.187439 39.4442 0.390222 39.4442 0.654887C39.4442 0.918018 39.239 1.12106 38.9702 1.12106Z" fill="#1D1E20"/>
    <path fill-rule="evenodd" clip-rule="evenodd" d="M39.0864 0.700678C39.1818 0.696075 39.2567 0.646978 39.2567 0.515284C39.2567 0.345489 39.1451 0.302784 38.9594 0.302784H38.6921V1.00652H38.8702V0.707072H38.9004L39.0625 1.00652H39.2678L39.0864 0.700678ZM38.9717 0.586629H38.8702V0.423226H38.9561C39.0084 0.423226 39.069 0.429619 39.069 0.497895C39.069 0.570775 39.0338 0.586629 38.9717 0.586629ZM36.9433 2.20225L37.77 0.0396516H28.3832L25.1602 3.93217L26.6482 0.0396516H23.5323L18.6904 13.0144H21.7668L23.834 7.58866L23.9756 13.0144L33.4149 12.994L34.3135 10.4982H30.7247L31.9038 7.35289H34.8617L35.7718 4.93483H32.8139L33.8279 2.20225H36.9433ZM27.0276 12.1494L26.8303 5.38694L31.4816 0.295879L27.0276 12.1494Z" fill="#1D1E20"/>
</svg>